<?xml version="1.0" standalone="no"?>
<!DOCTYPE svg PUBLIC "-//W3C//DTD SVG 20010904//EN"
 "http://www.w3.org/TR/2001/REC-SVG-20010904/DTD/svg10.dtd">
<svg version="1.0" xmlns="http://www.w3.org/2000/svg"
 width="624.000000pt" height="400.000000pt" viewBox="0 0 624.000000 400.000000"
 preserveAspectRatio="xMidYMid meet">

<g transform="translate(0.000000,400.000000) scale(0.100000,-0.100000)"
fill="#000000" stroke="none">
<path d="M3010 3827 c-80 -35 -201 -89 -270 -119 -249 -110 -777 -346 -865
-388 -49 -23 -148 -68 -220 -100 -71 -32 -168 -76 -215 -98 -47 -22 -134 -62
-195 -90 -333 -152 -335 -153 -335 -211 0 -20 4 -42 9 -50 5 -8 60 -40 123
-70 l113 -56 0 -365 0 -364 -25 -6 -25 -6 -3 -227 -2 -227 104 0 c100 0 104 1
107 23 2 12 2 114 -1 227 l-5 204 -25 6 -25 6 0 329 c0 326 0 330 21 333 11 2
144 -58 295 -133 l274 -135 587 0 587 0 3 289 3 289 30 38 c91 111 237 96 296
-31 17 -36 19 -69 19 -312 l0 -273 123 -1 c67 -1 331 -1 587 -1 l465 -1 453
211 c250 116 460 219 468 229 21 28 17 81 -8 106 -13 12 -115 65 -228 116
-113 52 -247 113 -299 137 -51 24 -95 44 -97 44 -1 0 -52 23 -111 51 -59 28
-171 79 -248 114 -77 35 -198 90 -270 123 -71 32 -175 80 -230 105 -55 25
-136 62 -180 82 -399 185 -566 258 -600 261 -33 4 -67 -7 -185 -59z"/>
<path d="M1877 1933 c-2 -10 -5 -289 -6 -620 l-2 -602 22 -20 c12 -11 26 -18
30 -15 5 3 21 -3 36 -13 15 -10 24 -13 21 -8 -3 6 1 16 9 24 13 12 14 11 9 -7
-5 -15 -1 -24 12 -31 11 -6 22 -8 25 -4 4 3 17 -1 30 -10 21 -14 28 -14 53 -1
l29 14 -24 -20 c-23 -20 -23 -20 -2 -20 12 0 21 -5 21 -11 0 -5 4 -7 10 -4 5
3 34 -6 65 -20 59 -27 69 -29 61 -17 -2 4 4 8 14 8 10 0 16 -6 13 -13 -4 -9 0
-11 11 -7 9 3 16 1 16 -5 0 -6 5 -11 11 -11 5 0 7 5 3 11 -4 7 -1 10 7 7 8 -3
13 -11 11 -17 -2 -12 4 -15 50 -25 15 -3 34 -13 42 -22 9 -8 16 -11 16 -5 0 6
5 11 11 11 5 0 7 -5 3 -12 -5 -8 2 -9 24 -5 21 4 34 1 43 -9 13 -16 90 -54
111 -54 7 0 22 -7 32 -15 25 -19 41 -19 60 1 15 14 16 14 16 0 0 -9 -5 -16
-11 -16 -5 0 -7 -5 -4 -11 4 -6 13 -8 21 -5 15 6 21 4 82 -28 18 -10 41 -15
50 -11 9 3 13 3 9 -1 -5 -6 73 -44 90 -44 1 0 2 283 3 630 0 596 -1 629 -17
624 -17 -5 -17 -5 0 6 9 6 17 23 16 38 0 24 -1 25 -9 7 -7 -16 -9 -17 -9 -3
-1 9 3 20 9 23 5 3 9 69 8 159 -1 84 1 157 5 163 4 6 -1 17 -10 24 -15 12 -16
12 -10 -5 6 -15 5 -17 -6 -7 -19 15 -1075 15 -1094 -1 -11 -8 -12 -7 -7 6 3 9
4 16 1 16 -3 0 -8 -8 -10 -17z m1123 -40 c0 -19 -27 -4 -33 17 -4 16 -2 17 14
7 10 -6 19 -17 19 -24z m-20 -27 c0 -3 -4 -8 -10 -11 -5 -3 -10 -1 -10 4 0 6
5 11 10 11 6 0 10 -2 10 -4z m-3 -168 c-2 -13 -4 -5 -4 17 -1 22 1 32 4 23 2
-10 2 -28 0 -40z m1 -153 c-3 -3 -9 2 -12 12 -6 14 -5 15 5 6 7 -7 10 -15 7
-18z m19 -97 c-3 -8 -6 -5 -6 6 -1 11 2 17 5 13 3 -3 4 -12 1 -19z m-10 -65
c-3 -10 -5 -4 -5 12 0 17 2 24 5 18 2 -7 2 -21 0 -30z m10 -475 c-3 -8 -6 -5
-6 6 -1 11 2 17 5 13 3 -3 4 -12 1 -19z m-1073 -200 c-5 -8 -1 -9 12 -5 19 7
19 7 0 -8 -23 -17 -42 -9 -25 11 14 17 23 19 13 2z m51 -18 c-3 -5 -12 -10
-18 -10 -7 0 -6 4 3 10 19 12 23 12 15 0z m195 -76 c0 -8 -19 -13 -24 -6 -3 5
1 9 9 9 8 0 15 -2 15 -3z m807 -116 c-2 -13 -4 -3 -4 22 0 25 2 35 4 23 2 -13
2 -33 0 -45z m-582 41 c11 -16 1 -19 -13 -3 -7 8 -8 14 -3 14 5 0 13 -5 16
-11z m235 -69 c8 -5 11 -10 5 -10 -5 0 -17 5 -25 10 -8 5 -10 10 -5 10 6 0 17
-5 25 -10z m10 -40 c0 -5 -2 -10 -4 -10 -3 0 -8 5 -11 10 -3 6 -1 10 4 10 6 0
11 -4 11 -10z"/>
<path d="M2520 456 c0 -2 7 -7 16 -10 8 -3 12 -2 9 4 -6 10 -25 14 -25 6z"/>
</g>
</svg>
